<svg width="20" height="20" viewBox="0 0 20 20" fill="none" xmlns="http://www.w3.org/2000/svg">
<rect width="4" height="4" fill="white"/>
<rect x="4" y="4" width="4" height="4" fill="white"/>
<rect x="8" y="8" width="4" height="4" fill="white"/>
<rect x="12" y="4" width="4" height="4" fill="white"/>
<rect x="16" width="4" height="4" fill="white"/>
<rect width="4" height="4" fill="white"/>
<rect x="4" y="4" width="4" height="4" fill="white"/>
<rect x="12" y="4" width="4" height="4" fill="white"/>
<rect x="16" width="4" height="4" fill="white"/>
<rect width="4" height="4" transform="matrix(1 0 0 -1 0 20)" fill="white"/>
<rect width="4" height="4" transform="matrix(1 0 0 -1 4 16)" fill="white"/>
<rect width="4" height="4" transform="matrix(1 0 0 -1 12 16)" fill="white"/>
<rect width="4" height="4" transform="matrix(1 0 0 -1 16 20)" fill="white"/>
</svg>
