<svg width="32" height="32" viewBox="0 0 32 32" fill="none" xmlns="http://www.w3.org/2000/svg">
<rect x="16" y="2" width="4" height="4" fill="white"/>
<rect x="20" y="2" width="4" height="4" fill="white"/>
<rect x="24" y="2" width="4" height="4" fill="white"/>
<rect x="28" y="2" width="4" height="4" fill="white"/>
<rect x="28" y="6" width="4" height="4" fill="white"/>
<rect x="28" y="10" width="4" height="4" fill="white"/>
<rect x="28" y="14" width="4" height="4" fill="white"/>
<rect x="28" y="18" width="4" height="4" fill="white"/>
<rect x="28" y="22" width="4" height="4" fill="white"/>
<rect x="28" y="26" width="4" height="4" fill="white"/>
<rect x="24" y="26" width="4" height="4" fill="white"/>
<rect x="20" y="26" width="4" height="4" fill="white"/>
<rect x="16" y="26" width="4" height="4" fill="white"/>
<rect x="16" y="14" width="4" height="4" fill="white"/>
<rect x="12" y="14" width="4" height="4" fill="white"/>
<rect x="8" y="14" width="4" height="4" fill="white"/>
<rect x="4" y="14" width="4" height="4" fill="white"/>
<rect y="14" width="4" height="4" fill="white"/>
<rect x="12" y="18" width="4" height="4" fill="white"/>
<rect x="8" y="22" width="4" height="4" fill="white"/>
<rect x="12" y="10" width="4" height="4" fill="white"/>
<rect x="8" y="6" width="4" height="4" fill="white"/>
</svg>
