<svg width="44" height="44" viewBox="0 0 44 44" fill="none" xmlns="http://www.w3.org/2000/svg">
<rect x="22" y="36" width="4" height="4" fill="#FF0E1F"/>
<rect x="22" y="32" width="4" height="4" fill="#FE7002"/>
<rect x="18" y="32" width="4" height="4" fill="#FEDD03"/>
<rect x="14" y="32" width="4" height="4" fill="#FEDD03"/>
<rect x="10" y="32" width="4" height="4" fill="#FF0E1F"/>
<rect x="10" y="28" width="4" height="4" fill="#FF0E1F"/>
<rect x="14" y="28" width="4" height="4" fill="#FE7003"/>
<rect x="18" y="28" width="4" height="4" fill="#FEDD03"/>
<rect x="22" y="28" width="4" height="4" fill="#FEDD03"/>
<rect x="26" y="28" width="4" height="4" fill="#F9411E"/>
<rect x="30" y="28" width="4" height="4" fill="#FF0E1F"/>
<rect x="30" y="24" width="4" height="4" fill="#FF0E1F"/>
<rect x="26" y="24" width="4" height="4" fill="#F9411E"/>
<rect x="22" y="24" width="4" height="4" fill="#FEC601"/>
<rect x="18" y="24" width="4" height="4" fill="#FE7003"/>
<rect x="14" y="24" width="4" height="4" fill="#F9411E"/>
<rect x="14" y="20" width="4" height="4" fill="#FF0E1F"/>
<rect x="18" y="20" width="4" height="4" fill="#F9411E"/>
<rect x="18" y="16" width="4" height="4" fill="#FF0E1F"/>
<rect x="22" y="20" width="4" height="4" fill="#FEC601"/>
<rect x="22" y="16" width="4" height="4" fill="#F9411E"/>
<rect x="26" y="20" width="4" height="4" fill="#F9411E"/>
<rect x="26" y="16" width="4" height="4" fill="#F9411E"/>
<rect x="30" y="20" width="4" height="4" fill="#FF0E1F"/>
<rect x="26" y="12" width="4" height="4" fill="#FF0E1F"/>
<rect x="22" y="12" width="4" height="4" fill="#FF0E1F"/>
<rect x="22" y="8" width="4" height="4" fill="#FF0E1F"/>
<rect x="34" y="10" width="4" height="4" fill="#FE0F1D"/>
<rect x="12" y="11" width="4" height="4" fill="#FE0F1D"/>
<rect x="16" y="4" width="4" height="4" fill="#FE0F1D"/>
<rect x="10" y="24" width="4" height="4" fill="#FF0E1F"/>
<rect x="26" y="32" width="4" height="4" fill="#FF0E1F"/>
<rect x="14" y="36" width="4" height="4" fill="#FF0E1F"/>
<rect x="18" y="36" width="4" height="4" fill="#FEDD03"/>
</svg>
