<svg width="168" height="22" viewBox="0 0 168 22" fill="none" xmlns="http://www.w3.org/2000/svg">
<path fill-rule="evenodd" clip-rule="evenodd" d="M17.7766 6.52356L18.7852 7.04378L19.8175 6.62761L21.5599 9.56365C21.5638 10.0522 21.5643 13.2507 21.5609 14.0288L19.251 17.8335L12.11 20.9776H8.50562L4.82727 18.7337C4.81131 18.7201 2.91309 17.8967 2.91309 17.8967L2.52707 17.4353L1.30608 16.3224L0.949091 14.7029L2.31712 15.4448L2.83715 14.8567L4.09197 14.3138L5.07153 12.8797L1.88997 12.5313L1.22772 12.7575L3.15012 10.7172L5.17168 10.0341L6.76561 10.6404C6.76609 10.6449 6.76658 10.6449 6.76658 10.6404L13.4645 12.2011L12.617 10.6992L12.111 9.08861L11.9378 8.60004L10.8165 6.92167C10.815 6.91715 10.8121 6.91714 10.8092 6.91262L8.29715 7.93504C8.29521 7.93956 8.29375 7.93956 8.29133 7.93956L6.97459 8.17024L4.20612 8.39643L3.69385 7.88975L4.23467 7.02119L7.49654 4.5873L9.70677 3.67798L15.0691 3.45178L16.0661 5.53732C16.0714 5.54637 16.0796 5.55544 16.0864 5.56449L17.7766 6.52356ZM8.85296 7.69978L8.85441 7.69525L8.86749 7.69072L8.85296 7.69978ZM22.2764 9.33292L20.3593 6.10281L21.5807 3.868L21.2189 1.75077L18.3213 0L16.9726 0.750992L16.0123 2.36602L15.4445 2.76866L9.72224 3.0175L7.23291 3.97205L6.13335 2.81842L4.54474 2.54246L3.65952 4.34299C3.65081 4.36561 3.75143 6.53257 3.75143 6.53257L2.51207 8.55029L2.30067 10.6539L0 13.1828L0.594522 16.6482L1.67037 17.571L2.43805 18.4532L4.52298 19.4078L8.19266 21.8688L12.3548 22H12.3577C12.4254 22 19.8417 18.5889 19.8417 18.5889L22.2976 14.3771C22.3402 14.3048 22.2764 9.33292 22.2764 9.33292Z" fill="white"/>
<path fill-rule="evenodd" clip-rule="evenodd" d="M49.8386 8.98455C49.8386 7.3695 48.5949 6.24754 46.7755 6.24754H42.745V11.717H46.7755C48.5949 11.717 49.8386 10.5996 49.8386 8.98455ZM40.8333 19.0187V4.65515H47.0058C50.0916 4.65515 51.8191 6.63662 51.8191 8.98455C51.8191 11.3325 50.0457 13.314 47.0058 13.314H42.745V19.0187H40.8333Z" fill="white"/>
<path fill-rule="evenodd" clip-rule="evenodd" d="M61.562 19.0187H63.4738V4.65515H61.562V19.0187Z" fill="white"/>
<path fill-rule="evenodd" clip-rule="evenodd" d="M85.6926 19.0187L79.8886 12.1694L74.0852 19.0187H73.1177L79.4745 11.6537L73.4631 4.65515H74.4538L79.8886 11.0927L85.324 4.65515H86.3142L80.3037 11.6356L86.66 19.0187H85.6926Z" fill="white"/>
<path fill-rule="evenodd" clip-rule="evenodd" d="M107.411 11.8482C107.411 8.48694 105.2 6.01238 101.768 6.01238C98.3144 6.01238 96.1259 8.48694 96.1259 11.8482C96.1259 15.1869 98.3144 17.6841 101.768 17.6841C105.2 17.6841 107.411 15.1869 107.411 11.8482ZM94.1455 11.8482C94.1455 7.60476 97.209 4.41541 101.768 4.41541C106.306 4.41541 109.392 7.60476 109.392 11.8482C109.392 16.0917 106.306 19.2811 101.768 19.2811C97.209 19.2811 94.1455 16.0917 94.1455 11.8482Z" fill="white"/>
<path fill-rule="evenodd" clip-rule="evenodd" d="M130.322 19.0187L119.958 5.77256V19.0187H119.221V4.65515H119.958L130.322 17.7701V4.65515H131.059V19.0187H130.322Z" fill="white"/>
<path fill-rule="evenodd" clip-rule="evenodd" d="M142.573 19.0187H144.484V4.65515H142.573V19.0187Z" fill="white"/>
<path fill-rule="evenodd" clip-rule="evenodd" d="M154.965 11.8482C154.965 7.43285 158.373 4.41541 162.634 4.41541C164.799 4.41541 166.618 5.21615 167.977 6.67738L167.401 7.15237C166.319 5.88113 164.546 5.0623 162.634 5.0623C158.788 5.0623 155.771 7.79929 155.771 11.8482C155.771 15.8565 158.788 18.6342 162.634 18.6342C164.546 18.6342 166.319 17.8153 167.401 16.5441L168 16.9965C166.549 18.5256 164.799 19.2811 162.634 19.2811C158.373 19.2811 154.965 16.2636 154.965 11.8482Z" fill="white"/>
</svg>
