<svg width="224" height="30" viewBox="0 0 224 30" fill="none" xmlns="http://www.w3.org/2000/svg">
<path fill-rule="evenodd" clip-rule="evenodd" d="M207 0.274048V16.6592H221.044V14.3185H223.385V7.29627H221.044V4.95553H211.681V0.274048H207ZM218.704 14.3185H211.681V7.29627H218.704V14.3185ZM194.022 17.6592V3.61479H189.341V1.27405H203.385V3.61479H198.704V17.6592H194.022ZM169 2.27405V18.6592H173.681V16.3185H176.022V13.9778H178.363V11.637H180.704V18.6592H185.385V2.27405H180.704V6.95553H178.363V9.29627H176.022V11.637H173.681V2.27405H169ZM149 19.6592V3.27405H163.044V5.61479H165.385V10.2963H163.044V12.637H165.385V17.3185H163.044V19.6592H149ZM153.681 10.2963H160.704V5.61479H153.681V10.2963ZM153.681 17.3185H160.704V12.637H153.681V17.3185ZM131.341 19.3185V21.6592H143.044V19.3185H145.385V7.61479H143.044V5.27405H131.341V7.61479H129V19.3185H131.341ZM140.704 19.3185H133.681V7.61479H140.704V19.3185ZM109 22.6592V6.27405H113.681V13.2963H120.704V6.27405H125.385V22.6592H120.704V15.637H113.681V22.6592H109ZM91 11.9555V23.6592H95.6815V18.9778H102.704V23.6592H107.385V11.9555H105.044V9.61479H102.704V7.27405H95.6815V9.61479H93.3407V11.9555H91ZM102.704 16.637H95.6815V11.9555H98.0222V9.61479H100.363V11.9555H102.704V16.637ZM78.926 24.6592V10.6148H74.2445V8.27405H88.289V10.6148H83.6075V24.6592H78.926ZM59.8593 23.0889V25.4296H69.2223V23.0889H71.563V20.7481H66.8816V23.0889H62.2001V20.7481H59.8593V13.7259H62.2001V11.3852H66.8816V13.7259H71.563V11.3852H69.2223V9.04443H59.8593V11.3852H57.5186V13.7259H55.1779V20.7481H57.5186V23.0889H59.8593ZM42.1334 26.6V24.2593H39.7926V21.9185H37.4519V14.8963H39.7926V12.5556H42.1334V10.2148H51.4963V12.5556H53.8371V14.8963H49.1556V12.5556H44.4741V14.8963H42.1334V21.9185H44.4741V24.2593H49.1556V21.9185H53.8371V24.2593H51.4963V26.6H42.1334ZM21.0667 26.4297V28.7704H32.7704V26.4297H35.1111V14.726H32.7704V12.3853H21.0667V14.726H18.726V26.4297H21.0667ZM30.4297 26.4297H23.4074V14.726H30.4297V26.4297ZM0 13.5555V29.9407H14.0444V27.6H16.3852V22.9185H14.0444V20.5778H16.3852V15.8963H14.0444V13.5555H0ZM11.7037 20.5778H4.68148V15.8963H11.7037V20.5778ZM11.7037 27.6H4.68148V22.9185H11.7037V27.6Z" fill="white"/>
</svg>
