<svg width="89" height="22" viewBox="0 0 89 22" fill="none" xmlns="http://www.w3.org/2000/svg">
<path fill-rule="evenodd" clip-rule="evenodd" d="M71.9038 0.274048V16.6592H76.5853V14.3185H78.926V11.9778H81.2668V9.63701H83.6075V16.6592H88.289V0.274048H83.6075V4.95553H81.2668V7.29627H78.926V9.63701H76.5853V0.274048H71.9038ZM60.2 17.4296V3.38517H55.5186V1.04443H69.563V3.38517H64.8815V17.4296H60.2ZM39.7926 2.21484V4.55558H51.4963V2.21484H39.7926ZM37.4519 6.89632V18.6H44.4741V16.2593H46.8149V13.9185H49.1556V18.6H53.8371V6.89632H49.1556V9.23707H46.8149V11.5778H44.4741V13.9185H42.1334V6.89632H37.4519ZM21.0668 20.7704V18.4297H18.7261V6.72599H21.0668V4.38525H32.7705V6.72599H35.1113V18.4297H32.7705V20.7704H21.0668ZM23.4076 18.4297H30.4298V6.72599H23.4076V18.4297ZM0 21.9407V5.55554H14.0444V7.89628H16.3852V12.5778H14.0444V14.9185H16.3852V19.6H14.0444V21.9407H0ZM4.68148 12.5778H11.7037V7.89628H4.68148V12.5778ZM4.68148 19.6H11.7037V14.9185H4.68148V19.6Z" fill="white"/>
</svg>
