<svg width="33" height="32" viewBox="0 0 33 32" fill="none" xmlns="http://www.w3.org/2000/svg">
<rect x="19" y="10" width="2.67" height="2.67" fill="white"/>
<rect x="17" y="11" width="2.67" height="2.67" fill="white"/>
<rect x="15" y="11" width="2.67" height="2.67" fill="white"/>
<rect x="14" y="13" width="2.67" height="2.67" fill="white"/>
<rect x="13" y="14" width="2.67" height="2.67" fill="white"/>
<rect x="11" y="16" width="2.67" height="2.67" fill="white"/>
<rect x="9" y="19" width="2.67" height="2.67" fill="white"/>
<rect x="9" y="18" width="2.67" height="2.67" fill="white"/>
<rect x="7" y="16" width="2.67" height="2.67" fill="white"/>
<rect x="7" y="14" width="2.67" height="2.67" fill="white"/>
<rect x="5" y="12" width="2.67" height="2.67" fill="white"/>
<rect x="4" y="10" width="2.67" height="2.67" fill="white"/>
<rect x="4" y="8" width="2.67" height="2.67" fill="white"/>
<rect x="5" y="8" width="2.67" height="2.67" fill="white"/>
<rect x="6" y="8" width="2.67" height="2.67" fill="white"/>
<rect x="8" y="8" width="2.67" height="2.67" fill="white"/>
<rect x="10" y="7" width="2.67" height="2.67" fill="white"/>
<rect x="10" y="5" width="2.67" height="2.67" fill="white"/>
<rect x="8" y="3" width="2.67" height="2.67" fill="white"/>
<rect x="6" y="1" width="2.67" height="2.67" fill="white"/>
<rect x="4" y="1" width="2.67" height="2.67" fill="white"/>
<rect x="2" y="3" width="2.67" height="2.67" fill="white"/>
<rect y="5" width="2.67" height="2.67" fill="white"/>
<rect y="6" width="2.67" height="2.67" fill="white"/>
<rect y="7" width="2.67" height="2.67" fill="white"/>
<rect y="8" width="2.67" height="2.67" fill="white"/>
<rect y="8" width="2.67" height="2.67" fill="white"/>
<rect y="9" width="2.67" height="2.67" fill="white"/>
<rect y="10" width="2.67" height="2.67" fill="white"/>
<rect y="11" width="2.67" height="2.67" fill="white"/>
<rect y="12" width="2.67" height="2.67" fill="white"/>
<rect y="13" width="2.67" height="2.67" fill="white"/>
<rect y="14" width="2.67" height="2.67" fill="white"/>
<rect y="15" width="2.67" height="2.67" fill="white"/>
<rect y="16" width="2.67" height="2.67" fill="white"/>
<rect y="17" width="2.67" height="2.67" fill="white"/>
<rect x="2" y="19" width="2.67" height="2.67" fill="white"/>
<rect x="2" y="21" width="2.67" height="2.67" fill="white"/>
<rect x="3" y="23" width="2.67" height="2.67" fill="white"/>
<rect x="5" y="25" width="2.67" height="2.67" fill="white"/>
<rect width="2.67" height="2.67" transform="matrix(1 0 0 -1 7 29)" fill="white"/>
<rect width="2.67" height="2.67" transform="matrix(1 0 0 -1 9 31)" fill="white"/>
<rect width="2.67" height="2.67" transform="matrix(1 0 0 -1 11 31)" fill="white"/>
<rect width="2.67" height="2.67" transform="matrix(1 0 0 -1 13 29)" fill="white"/>
<rect width="2.67" height="2.67" transform="matrix(1 0 0 -1 14 29)" fill="white"/>
<rect width="2.67" height="2.67" transform="matrix(1 0 0 -1 15 29)" fill="white"/>
<rect width="2.67" height="2.67" transform="matrix(1 0 0 -1 17 28)" fill="white"/>
<rect width="2.67" height="2.67" transform="matrix(1 0 0 -1 19 26)" fill="white"/>
<rect width="2.67" height="2.67" transform="matrix(1 0 0 -1 21 26)" fill="white"/>
<rect width="2.67" height="2.67" transform="matrix(1 0 0 -1 23 24)" fill="white"/>
<rect width="2.67" height="2.67" transform="matrix(1 0 0 -1 24 24)" fill="white"/>
<rect width="2.67" height="2.67" transform="matrix(1 0 0 -1 26 22)" fill="white"/>
<rect width="2.67" height="2.67" transform="matrix(1 0 0 -1 28 20)" fill="white"/>
<rect width="2.67" height="2.67" transform="matrix(1 0 0 -1 30 18)" fill="white"/>
<rect width="2.67" height="2.67" transform="matrix(1 0 0 -1 30 16)" fill="white"/>
<rect width="2.67" height="2.67" transform="matrix(1 0 0 -1 30 14)" fill="white"/>
<rect width="2.67" height="2.67" transform="matrix(1 0 0 -1 30 13)" fill="white"/>
<rect width="2.67" height="2.67" transform="matrix(1 0 0 -1 30 12)" fill="white"/>
<rect x="20" y="8" width="2.67" height="2.67" fill="white"/>
<rect x="21" y="6" width="2.67" height="2.67" fill="white"/>
<rect x="23" y="5" width="2.67" height="2.67" fill="white"/>
<rect x="25" y="5" width="2.67" height="2.67" fill="white"/>
<rect x="27" y="6" width="2.67" height="2.67" fill="white"/>
<rect x="27" y="6" width="2.67" height="2.67" fill="white"/>
<rect x="29" y="8" width="2.67" height="2.67" fill="white"/>
<rect x="29" y="8" width="2.67" height="2.67" fill="white"/>
<rect x="30" y="10" width="2.67" height="2.67" fill="white"/>
</svg>
