<svg width="532" height="4" viewBox="0 0 532 4" fill="none" xmlns="http://www.w3.org/2000/svg">
<path d="M0 4V-4.76837e-07H4V4H0ZM16 4V-4.76837e-07H20V4H16ZM32 4V-4.76837e-07H36V4H32ZM48 4V-4.76837e-07H52V4H48ZM64 4V-4.76837e-07H68V4H64ZM80 4V-4.76837e-07H84V4H80ZM96 4V-4.76837e-07H100V4H96ZM112 4V-4.76837e-07H116V4H112ZM128 4V-4.76837e-07H132V4H128ZM144 4V-4.76837e-07H148V4H144ZM160 4V-4.76837e-07H164V4H160ZM176 4V-4.76837e-07H180V4H176ZM192 4V-4.76837e-07H196V4H192ZM208 4V-4.76837e-07H212V4H208ZM224 4V-4.76837e-07H228V4H224ZM240 4V-4.76837e-07H244V4H240ZM256 4V-4.76837e-07H260V4H256ZM272 4V-4.76837e-07H276V4H272ZM288 4V-4.76837e-07H292V4H288ZM304 4V-4.76837e-07H308V4H304ZM320 4V-4.76837e-07H324V4H320ZM336 4V-4.76837e-07H340V4H336ZM352 4V-4.76837e-07H356V4H352ZM368 4V-4.76837e-07H372V4H368ZM384 4V-4.76837e-07H388V4H384ZM400 4V-4.76837e-07H404V4H400ZM416 4V-4.76837e-07H420V4H416ZM432 4V-4.76837e-07H436V4H432ZM448 4V-4.76837e-07H452V4H448ZM464 4V-4.76837e-07H468V4H464ZM480 4V-4.76837e-07H484V4H480ZM496 4V-4.76837e-07H500V4H496ZM512 4V-4.76837e-07H516V4H512ZM528 4V-4.76837e-07H532V4H528Z" fill="white"/>
</svg>
