<svg width="241" height="130" viewBox="0 0 241 130" fill="none" xmlns="http://www.w3.org/2000/svg">
<path fill-rule="evenodd" clip-rule="evenodd" d="M10.5355 0H47.4098V10.5355H10.5355V0ZM0 44.776V10.5355H10.5355L10.5355 44.776H0ZM10.5355 44.776H36.8743V34.2404L23.7049 34.2404V23.7049H36.8743H47.4098V34.2404V44.776V55.3115H36.8743H10.5355L10.5355 44.776ZM71.1148 0H97.4536V10.5355H71.1148V0ZM71.1148 23.7049H97.4536V10.5355H107.989V55.3115H97.4536V34.2404H71.1148L71.1148 55.3115H60.5792L60.5792 10.5355H71.1148V23.7049ZM121.158 55.3115V4.47035e-07L131.694 0V11.8525H142.23V22.388H131.694L131.694 55.3115H121.158ZM152.765 22.388V32.9235H142.23V22.388H152.765ZM152.765 22.388V11.8525H163.301L163.301 4.47035e-07L173.836 0L173.836 55.3115H163.301V22.388H152.765ZM219.929 107.989V118.525H230.464V129.06H241V118.525H230.464V107.989L241 107.989V97.4536V84.2841L230.464 84.2842V73.7486H204.126H193.59V84.2842V97.4536V107.989V129.06H204.126V107.989L219.929 107.989ZM230.464 97.4536V84.2842H204.126V97.4536H230.464ZM187.005 22.388V10.5357V0.000134349V4.47035e-07L197.541 0V0.000134349H239.683V10.5357H197.541V22.388H222.563V32.9235H197.541V44.776H239.683V55.3115H197.541H187.005V44.776V32.9235V22.388ZM179.104 73.7486H126.426V73.7487L126.426 97.4536V107.989V118.525V129.06H136.962H179.104V118.525H136.962V107.989H161.984V97.4536H136.962L136.962 84.2842H179.104V73.7486ZM36.8743 73.7486V84.2842H10.5355V73.7486H36.8743ZM0 84.2842H10.5355V118.525H0V84.2842ZM36.8743 118.525V84.2842L47.4098 84.2841V118.525H36.8743ZM36.8743 118.525H10.5355V129.06H36.8743V118.525ZM60.5792 73.7486V107.989H71.1148V118.525H81.6503V129.06H92.1858V118.525H102.721V107.989H113.257V73.7486L102.721 73.7486V107.989H92.1858L92.1858 118.525H81.6503V107.989H71.1148V73.7486L60.5792 73.7486Z" fill="white"/>
</svg>
