<svg width="40" height="40" viewBox="0 0 40 40" fill="none" xmlns="http://www.w3.org/2000/svg">
<g clip-path="url(#clip0)">
<path fill-rule="evenodd" clip-rule="evenodd" d="M5.80645 2.43555H10.9677V7.59684H5.80645V2.43555ZM11.6129 2.43555H16.7742V7.59684H11.6129V2.43555ZM16.7742 8.242H11.6129V13.4033H16.7742V8.242ZM17.4194 8.242H22.5806V13.4033H17.4194V8.242ZM28.3871 8.242H23.2258V13.4033H28.3871V8.242ZM23.2258 2.43555H28.3871V7.59684H23.2258V2.43555ZM34.1935 8.242H29.0323V13.4033H34.1935V8.242ZM29.0323 2.43555H34.1935V7.59684H29.0323V2.43555ZM40 8.242H34.8387V13.4033H40V8.242ZM5.80645 8.242H10.9677V13.4033H5.80645V8.242ZM5.16129 8.242H0V13.4033H5.16129V8.242ZM0 14.0485H5.16129V19.2097H0V14.0485ZM22.5806 14.0485H17.4194V19.2097H22.5806V14.0485ZM17.4194 19.8549H22.5806V25.0162H17.4194V19.8549ZM22.5806 25.6614H17.4194V30.8226H22.5806V25.6614ZM17.4194 31.4678H22.5806V36.6291H17.4194V31.4678ZM10.9677 14.0485H5.80645V19.2097H10.9677V14.0485ZM5.80645 19.8549H10.9677V25.0162H5.80645V19.8549ZM28.3871 14.0485H23.2258V19.2097H28.3871V14.0485ZM23.2258 19.8549H28.3871V25.0162H23.2258V19.8549ZM28.3871 25.6614H23.2258V30.8226H28.3871V25.6614ZM11.6129 14.0485H16.7742V19.2097H11.6129V14.0485ZM16.7742 19.8549H11.6129V25.0162H16.7742V19.8549ZM11.6129 25.6614H16.7742V30.8226H11.6129V25.6614ZM34.1935 14.0485H29.0323V19.2097H34.1935V14.0485ZM29.0323 19.8549H34.1935V25.0162H29.0323V19.8549ZM40 14.0485H34.8387V19.2097H40V14.0485Z" fill="#FF0E1F"/>
</g>
<defs>
<clipPath id="clip0">
<rect width="40" height="40" fill="white"/>
</clipPath>
</defs>
</svg>
