<svg width="40" height="40" viewBox="0 0 40 40" fill="none" xmlns="http://www.w3.org/2000/svg">
<rect x="2.31519" y="14.3589" width="1.69963" height="1.69963" fill="white"/>
<rect x="0.615479" y="16.0586" width="1.69963" height="1.69963" fill="white"/>
<rect x="0.615479" y="17.7583" width="1.69963" height="1.69963" fill="white"/>
<rect x="0.615479" y="19.458" width="1.69963" height="1.69963" fill="white"/>
<rect x="0.615479" y="21.1572" width="1.69963" height="1.69963" fill="white"/>
<rect x="0.615479" y="22.8569" width="1.69963" height="1.69962" fill="white"/>
<rect x="0.615479" y="24.5566" width="1.69963" height="1.69963" fill="white"/>
<rect x="0.615479" y="26.2563" width="1.69963" height="1.69963" fill="white"/>
<rect x="0.615479" y="27.9561" width="1.69963" height="1.69963" fill="white"/>
<rect x="0.615479" y="29.6558" width="1.69963" height="1.69964" fill="white"/>
<rect x="0.615479" y="31.3555" width="1.69963" height="1.69962" fill="white"/>
<rect x="2.31519" y="34.7539" width="1.69963" height="1.69963" fill="white"/>
<rect x="4.01465" y="14.3589" width="1.69963" height="1.69963" fill="white"/>
<rect x="5.71436" y="14.3589" width="1.69963" height="1.69963" fill="white"/>
<rect x="7.41406" y="14.3589" width="1.69963" height="1.69963" fill="white"/>
<rect x="9.11353" y="14.3589" width="1.69963" height="1.69963" fill="white"/>
<rect x="10.8132" y="14.3589" width="1.69963" height="1.69963" fill="white"/>
<rect x="12.5129" y="16.0586" width="1.69963" height="1.69963" fill="white"/>
<rect x="12.5129" y="17.7583" width="1.69963" height="1.69963" fill="white"/>
<rect x="12.5129" y="19.458" width="1.69963" height="1.69963" fill="white"/>
<rect x="12.5129" y="21.1572" width="1.69963" height="1.69963" fill="white"/>
<rect x="12.5129" y="22.8569" width="1.69963" height="1.69962" fill="white"/>
<rect x="12.5129" y="24.5566" width="1.69963" height="1.69963" fill="white"/>
<rect x="12.5129" y="26.2563" width="1.69963" height="1.69963" fill="white"/>
<rect x="12.5129" y="27.9561" width="1.69963" height="1.69963" fill="white"/>
<rect x="12.5129" y="29.6558" width="1.69963" height="1.69964" fill="white"/>
<rect x="12.5129" y="31.3555" width="1.69963" height="1.69962" fill="white"/>
<rect x="12.5129" y="33.0547" width="1.69963" height="1.69962" fill="white"/>
<rect x="0.615479" y="33.0547" width="1.69963" height="1.69962" fill="white"/>
<rect x="12.5129" y="34.7539" width="1.69963" height="1.69963" fill="white"/>
<rect x="10.8132" y="36.4541" width="1.69963" height="1.69963" fill="white"/>
<rect x="9.11353" y="36.4541" width="1.69963" height="1.69963" fill="white"/>
<rect x="7.41406" y="36.4541" width="1.69963" height="1.69963" fill="white"/>
<rect x="5.71436" y="36.4541" width="1.69963" height="1.69963" fill="white"/>
<rect x="4.01465" y="36.4541" width="1.69963" height="1.69963" fill="white"/>
<rect x="7.41406" y="29.6558" width="3.39926" height="3.39925" fill="white"/>
<rect x="14.2126" y="17.7583" width="1.69963" height="1.69963" fill="white"/>
<rect x="15.9121" y="17.7583" width="1.69963" height="1.69963" fill="white"/>
<rect x="17.6118" y="16.0586" width="1.69963" height="1.69963" fill="white"/>
<rect x="19.3113" y="16.0586" width="1.69963" height="1.69963" fill="white"/>
<rect x="21.011" y="14.3589" width="1.69963" height="1.69963" fill="white"/>
<rect x="22.7107" y="12.6592" width="1.69963" height="1.69963" fill="white"/>
<rect x="22.7107" y="10.9595" width="1.69963" height="1.69963" fill="white"/>
<rect x="24.4104" y="9.25977" width="1.69963" height="1.69963" fill="white"/>
<rect x="24.4104" y="7.56055" width="1.69963" height="1.69963" fill="white"/>
<rect x="26.1099" y="5.86084" width="1.69963" height="1.69963" fill="white"/>
<rect x="26.1099" y="4.16113" width="1.69963" height="1.69963" fill="white"/>
<rect x="27.8096" y="2.46143" width="1.69963" height="1.69963" fill="white"/>
<rect x="29.509" y="2.46143" width="1.69964" height="1.69963" fill="white"/>
<rect x="31.2087" y="4.16113" width="1.69961" height="1.69963" fill="white"/>
<rect x="31.2087" y="5.86084" width="1.69961" height="1.69963" fill="white"/>
<rect x="31.2087" y="7.56055" width="1.69961" height="1.69963" fill="white"/>
<rect x="31.2087" y="9.25977" width="1.69961" height="1.69963" fill="white"/>
<rect x="31.2087" y="10.9595" width="1.69961" height="1.69963" fill="white"/>
<rect x="29.509" y="12.6592" width="1.69964" height="1.69963" fill="white"/>
<rect x="29.509" y="14.3589" width="1.69964" height="1.69963" fill="white"/>
<rect x="31.2087" y="16.0586" width="1.69961" height="1.69963" fill="white"/>
<rect x="32.9084" y="16.0586" width="1.69962" height="1.69963" fill="white"/>
<rect x="34.6079" y="16.0586" width="1.69964" height="1.69963" fill="white"/>
<rect x="36.3076" y="16.0586" width="1.69963" height="1.69963" fill="white"/>
<rect x="38.0073" y="17.7583" width="1.69963" height="1.69963" fill="white"/>
<rect x="38.0073" y="19.458" width="1.69963" height="1.69963" fill="white"/>
<rect x="36.3076" y="21.1572" width="1.69963" height="1.69963" fill="white"/>
<rect x="38.0073" y="22.8569" width="1.69963" height="1.69962" fill="white"/>
<rect x="38.0073" y="24.5566" width="1.69963" height="1.69963" fill="white"/>
<rect x="36.3076" y="26.2563" width="1.69963" height="1.69963" fill="white"/>
<rect x="36.3076" y="27.9561" width="1.69963" height="1.69963" fill="white"/>
<rect x="36.3076" y="29.6558" width="1.69963" height="1.69964" fill="white"/>
<rect x="34.6079" y="31.3555" width="1.69964" height="1.69962" fill="white"/>
<rect x="34.6079" y="33.0547" width="1.69964" height="1.69962" fill="white"/>
<rect x="34.6079" y="34.7539" width="1.69964" height="1.69963" fill="white"/>
<rect x="32.9084" y="36.4541" width="1.69962" height="1.69963" fill="white"/>
<rect x="31.2087" y="36.4541" width="1.69961" height="1.69963" fill="white"/>
<rect x="14.2126" y="33.0547" width="1.69963" height="1.69962" fill="white"/>
<rect x="15.9121" y="33.0547" width="1.69963" height="1.69962" fill="white"/>
<rect x="17.6118" y="34.7539" width="1.69963" height="1.69963" fill="white"/>
<rect x="19.3113" y="34.7539" width="1.69963" height="1.69963" fill="white"/>
<rect x="21.011" y="36.4541" width="1.69963" height="1.69963" fill="white"/>
<rect x="22.7107" y="36.4541" width="1.69963" height="1.69963" fill="white"/>
<rect x="24.4104" y="36.4541" width="1.69963" height="1.69963" fill="white"/>
<rect x="26.1099" y="36.4541" width="1.69963" height="1.69963" fill="white"/>
<rect x="27.8096" y="36.4541" width="1.69963" height="1.69963" fill="white"/>
<rect x="29.509" y="36.4541" width="1.69964" height="1.69963" fill="white"/>
<rect x="32.9084" y="31.3555" width="1.69962" height="1.69962" fill="white"/>
<rect x="31.2087" y="31.3555" width="1.69961" height="1.69962" fill="white"/>
<rect x="29.509" y="31.3555" width="1.69964" height="1.69962" fill="white"/>
<rect x="34.6079" y="26.2563" width="1.69964" height="1.69963" fill="white"/>
<rect x="32.9084" y="26.2563" width="1.69962" height="1.69963" fill="white"/>
<rect x="31.2087" y="26.2563" width="1.69961" height="1.69963" fill="white"/>
<rect x="34.6079" y="21.1572" width="1.69964" height="1.69963" fill="white"/>
<rect x="32.9084" y="21.1572" width="1.69962" height="1.69963" fill="white"/>
</svg>
