<svg width="104" height="54" viewBox="0 0 104 54" fill="none" xmlns="http://www.w3.org/2000/svg">
<path fill-rule="evenodd" clip-rule="evenodd" d="M32.56 9.57447V44.4255H37.5V49.4043H94.5V44.4255H99.44V9.57447H94.5V4.59575H37.5V9.57447H32.56ZM42.44 14.5532V9.57447H37.5V14.5532H42.44ZM47.38 19.5319V14.5532H42.44V19.5319H47.38ZM52.32 24.5106V19.5319H47.38V24.5106H52.32ZM57.26 29.4894V24.5106H52.32V29.4894H47.38V34.4681H42.44V39.4468H37.5V44.4255H42.44V39.4468H47.38V34.4681H52.32V29.4894H57.26ZM62.2 34.4681V29.4894H57.26V34.4681H62.2ZM69.8 34.4681V39.4468H62.2V34.4681H69.8ZM74.74 29.4894V34.4681H69.8V29.4894H74.74ZM79.68 24.5106H74.74V29.4894H79.68V34.4681H84.62V39.4468H89.56V44.4255H94.5V39.4468H89.56V34.4681H84.62V29.4894H79.68V24.5106ZM84.62 19.5319V24.5106H79.68V19.5319H84.62ZM89.56 14.5532V19.5319H84.62V14.5532H89.56ZM89.56 14.5532H94.5V9.57447H89.56V14.5532ZM28 4.59574V49.4043V54H32.56H104V52.8511V49.4043V4.59575V0H99.44H32.56H28L28 4.59574Z" fill="white"/>
<rect y="15" width="24" height="5" fill="white"/>
<rect x="11" y="25" width="13" height="5" fill="white"/>
<rect x="17" y="35" width="7" height="5" fill="white"/>
</svg>
