<svg width="163" height="26" viewBox="0 0 163 26" fill="none" xmlns="http://www.w3.org/2000/svg">
<path fill-rule="evenodd" clip-rule="evenodd" d="M145.808 0.274078V16.6593H159.852V14.3185H162.193V7.2963H159.852V4.95556H150.489V0.274078H145.808ZM157.511 14.3185H150.489V7.2963H157.511V14.3185ZM134.104 17.6593V3.61482H129.422V1.27408H143.467V3.61482H138.785V17.6593H134.104ZM111.356 2.27408V18.6593H116.037V16.3185H118.378V13.9778H120.719V11.637H123.059V18.6593H127.741V2.27408H123.059V6.95556H120.719V9.2963H118.378V11.637H116.037V2.27408H111.356ZM92.6298 19.6593V3.27408H106.674V5.61482H109.015V10.2963H106.674V12.637H109.015V17.3185H106.674V19.6593H92.6298ZM97.3112 10.2963H104.333V5.61482H97.3112V10.2963ZM97.3112 17.3185H104.333V12.637H97.3112V17.3185ZM73.9038 8.95556V20.6593H78.5853V15.9778H85.6075V20.6593H90.289V8.95556H87.9483V6.61482H85.6075V4.27408H78.5853V6.61482H76.2446V8.95556H73.9038ZM85.6075 13.637H78.5853V8.95556H80.926V6.61482H83.2668V8.95556H85.6075V13.637ZM55.1779 22.4296V6.04446H69.2223V8.3852H71.563V15.4074H69.2223V17.7482H59.8593V22.4296H55.1779ZM59.8593 15.4074H66.8816V8.3852H59.8593V15.4074ZM35.4519 7.21487V23.6001H40.1334V9.55561H47.1556V23.6001H51.8371V7.21487H35.4519ZM22.7481 24.7705V10.726H18.0667V8.38528H32.1111V10.726H27.4296V24.7705H22.7481ZM2.34074 25.9408V23.6H0V11.8963H2.34074V9.55557H14.0444V11.8963H16.3852V23.6H14.0444V25.9408H2.34074ZM4.68148 23.6H11.7037V11.8963H4.68148V23.6Z" fill="white"/>
</svg>
