<svg width="60" height="60" viewBox="0 0 60 60" fill="none" xmlns="http://www.w3.org/2000/svg">
<rect x="25" width="5" height="5" fill="white"/>
<rect x="20" y="5" width="5" height="5" fill="white"/>
<rect x="15" y="10" width="5" height="5" fill="white"/>
<rect x="15" y="15" width="5" height="5" fill="white"/>
<rect x="20" y="20" width="5" height="5" fill="white"/>
<rect x="25" y="25" width="5" height="5" fill="white"/>
<rect x="25" y="30" width="5" height="5" fill="white"/>
<rect x="20" y="30" width="5" height="5" fill="white"/>
<rect x="15" y="35" width="5" height="5" fill="white"/>
<rect x="10" y="40" width="5" height="5" fill="white"/>
<rect x="5" y="45" width="5" height="5" fill="white"/>
<rect x="5" y="50" width="5" height="5" fill="white"/>
<rect x="5" y="55" width="5" height="5" fill="white"/>
<rect x="10" y="55" width="5" height="5" fill="white"/>
<rect x="15" y="55" width="5" height="5" fill="white"/>
<rect x="20" y="55" width="5" height="5" fill="white"/>
<rect x="25" y="55" width="5" height="5" fill="white"/>
<rect x="30" y="55" width="5" height="5" fill="white"/>
<rect x="35" y="55" width="5" height="5" fill="white"/>
<rect x="40" y="55" width="5" height="5" fill="white"/>
<rect x="45" y="55" width="5" height="5" fill="white"/>
<rect x="50" y="55" width="5" height="5" fill="white"/>
<rect x="50" y="50" width="5" height="5" fill="white"/>
<rect x="50" y="45" width="5" height="5" fill="white"/>
<rect x="45" y="40" width="5" height="5" fill="white"/>
<rect x="40" y="35" width="5" height="5" fill="white"/>
<rect x="30" y="25" width="5" height="5" fill="white"/>
<rect x="30" y="30" width="5" height="5" fill="white"/>
<rect x="35" y="30" width="5" height="5" fill="white"/>
<rect x="30" width="5" height="5" fill="white"/>
<rect x="35" y="5" width="5" height="5" fill="white"/>
<rect x="40" y="10" width="5" height="5" fill="white"/>
<rect x="40" y="15" width="5" height="5" fill="white"/>
<rect x="35" y="20" width="5" height="5" fill="white"/>
</svg>
